<?xml version="1.0" encoding="utf-8"?>
<!-- Svg Vector Icons : http://www.onlinewebfonts.com/icon -->
<!DOCTYPE svg PUBLIC "-//W3C//DTD SVG 1.1//EN" "http://www.w3.org/Graphics/SVG/1.1/DTD/svg11.dtd">
<svg version="1.1" xmlns="http://www.w3.org/2000/svg" xmlns:xlink="http://www.w3.org/1999/xlink" x="0px" y="0px" viewBox="0 0 256 256" enable-background="new 0 0 256 256" xml:space="preserve">
<metadata> Svg Vector Icons : http://www.onlinewebfonts.com/icon </metadata>
<g><g><path fill="#ffffff" d="M246,203.8C246,203.8,246,203.8,246,203.8c0,4.1-3.3,7.3-7.3,7.3h-54.8c4.1-0.9,7.2-4.5,7.2-8.9v0l0,0c0,0,0-33.3-24.4-45.4c-10.4-5.2-11.1-4.2-16.3-5.4l0.1-14.4c0,0-5.7-4.3-7.5-17.9c-3.6,1-4.7-4.2-4.9-7.5c-0.2-3.2-2.1-13.2,2.3-12.3c-0.9-6.7-1.5-12.7-1.2-15.8c1.1-11.2,11.9-22.9,28.5-23.7c19.6,0.8,27.3,12.5,28.4,23.7c0.3,3.2-0.4,9.2-1.3,15.8c4.3-0.9,2.5,9.1,2.2,12.3c-0.2,3.3-1.4,8.5-4.9,7.5c-1.8,13.6-7.5,17.9-7.5,17.9l0.1,14.4c0,0,3.6,2,18.8,8.3c15.2,6.3,10.4,1.6,22.8,7.7C246,177.1,246,203.8,246,203.8L246,203.8L246,203.8L246,203.8z M135.7,154.6c16.7,6.9,11.5,1.7,25.1,8.5c21.5,10.7,21.5,40,21.5,40l0,0v0c0,4.5-3.6,8-8.1,8H18.1c-4.5,0-8.1-3.6-8.1-8v0l0,0c0,0,0-29.3,21.5-40c13.6-6.7,8.4-1.3,25.1-8.2c16.7-6.9,20.7-9.3,20.7-9.3l0.2-15.9c0,0-6.3-4.8-8.2-19.7c-3.9,1.1-5.2-4.6-5.4-8.2c-0.2-3.5-2.3-14.5,2.5-13.5c-1-7.3-1.7-13.9-1.3-17.4C66.1,58.6,78,45.8,96.3,44.8c21.5,0.9,30,13.8,31.2,26c0.4,3.5-0.4,10.1-1.4,17.4c4.8-1,2.7,10,2.5,13.5c-0.2,3.6-1.5,9.3-5.4,8.2c-2,15-8.2,19.7-8.2,19.7l0.1,15.8C115.1,145.4,119,147.7,135.7,154.6"/></g></g>
</svg>